g FX_MESH_CH0187_Hud_Radar_10
v 0.2240822 0.2985865 0
v 0.2131324 0.2906663 0
v 0.137757 0.4083651 0
v 0.1462187 0.4170336 0
v 0.1196378 0.4366582 0
v 0.1456304 0.4519783 0
v 0.1015186 0.464822 -2.965648E-09
v 0.1050442 0.5081785 -3.068388E-09
v 0 0.5081785 -3.068388E-09
v 0 0.464822 -2.965647E-09
v -0.0973265 0.464822 -2.965647E-09
v -0.1035348 0.5081785 -3.068388E-09
v -0.1414383 0.4519783 -1.273142E-08
v -0.1154457 0.4366582 -1.045907E-08
v -0.1420265 0.4170336 -1.278284E-08
v -0.1335649 0.4083651 -1.20431E-08
v -0.2198901 0.2985865 -1.958989E-08
v -0.2089403 0.2906663 -1.863263E-08
vt 1 1
vt 1 0
vt 1 0
vt 1 1
vt 1 0
vt 1 1
vt 1 0
vt 1 1
vt 0 1
vt 0 0
vt 1 0
vt 1 1
vt 1 1
vt 1 0
vt 1 1
vt 1 0
vt 1 1
vt 1 0
vn 0 0 1
vn 0 0 1
vn 0 0 1
vn 0 0 1
vn 0 0 1
vn 0 0 1
vn 0 0 1
vn 0 0 1
vn 0 0 1
vn 0 0 1
vn 0 0 1
vn 0 0 1
vn -2.010478E-07 0 1
vn -2.010478E-07 0 1
vn 0 0 1
vn 0 0 1
vn 0 0 1
vn 0 0 1
g FX_MESH_CH0187_Hud_Radar_10_0
f 3/3/3 2/2/2 1/1/1
f 1/1/1 4/4/4 3/3/3
f 3/3/3 4/4/4 5/5/5
f 5/5/5 4/4/4 6/6/6
f 6/6/6 7/7/7 5/5/5
f 8/8/8 7/7/7 6/6/6
f 7/7/7 8/8/8 9/9/9
f 9/9/9 10/10/10 7/7/7
f 11/11/11 10/10/10 9/9/9
f 9/9/9 12/12/12 11/11/11
f 11/11/11 12/12/12 13/13/13
f 13/13/13 14/14/14 11/11/11
f 15/15/15 14/14/14 13/13/13
f 14/14/14 15/15/15 16/16/16
f 17/17/17 16/16/16 15/15/15
f 16/16/16 17/17/17 18/18/18
