g FX_MESH_CH0187_Hud_22c
v -2.47269E-08 0.5656854 4.270806E-08
v -2.326332E-08 0.5024361 0.3142779
v -0.09802043 0.4927819 0.3142779
v -0.1103598 0.5548159 4.270806E-08
v -0.192274 0.4641905 0.3142779
v -0.2164784 0.5226252 4.270806E-08
v -0.2791386 0.4177604 0.3142779
v -0.3142779 0.4703503 4.270806E-08
v -0.355276 0.355276 0.3142779
v -0.4 0.4 4.270806E-08
v -0.4177605 0.2791385 0.3142779
v -0.5226252 0.2164783 4.270806E-08
v -0.4703503 0.3142779 4.270806E-08
v -0.4641906 0.1922739 0.3142779
v -0.5548159 0.1103596 4.270806E-08
v -0.4927821 0.0980203 0.3142779
v -0.5656854 -1.843237E-07 4.270806E-08
v -0.5024362 -1.771596E-07 0.3142779
v -0.492782 -0.09802065 0.3142779
v -0.5548159 -0.11036 4.270806E-08
v -0.4641904 -0.1922742 0.3142779
v -0.5226251 -0.2164787 4.270806E-08
v -0.4177603 -0.2791388 0.3142779
v -0.4703501 -0.3142782 4.270806E-08
v -0.3552758 -0.3552763 0.3142779
v -0.3142776 -0.4703504 4.270806E-08
v -0.3999998 -0.4000002 4.270806E-08
v -0.2791383 -0.4177606 0.3142779
v -0.216478 -0.5226254 4.270806E-08
v -0.1922736 -0.4641907 0.3142779
v -0.1103593 -0.554816 4.270806E-08
v -0.09801999 -0.4927821 0.3142779
v 5.462254E-07 -0.5656854 4.270806E-08
v 4.838508E-07 -0.5024362 0.3142779
v 0.09802094 -0.4927819 0.3142779
v 0.1103603 -0.5548158 4.270806E-08
v 0.1922745 -0.4641903 0.3142779
v 0.216479 -0.5226249 4.270806E-08
v 0.2791391 -0.4177601 0.3142779
v 0.3142785 -0.4703498 4.270806E-08
v 0.3552764 -0.3552756 0.3142779
v 0.4000005 -0.3999995 4.270806E-08
v 0.4177607 -0.2791381 0.3142779
v 0.5226255 -0.2164777 4.270806E-08
v 0.4703507 -0.3142774 4.270806E-08
v 0.4641908 -0.1922733 0.3142779
v 0.5548161 -0.1103589 4.270806E-08
v 0.4927821 -0.0980197 0.3142779
v 0.5656854 9.081271E-07 4.270806E-08
v 0.5024361 7.931444E-07 0.3142779
v 0.4927818 0.09802125 0.3142779
v 0.5548157 0.1103607 4.270806E-08
v 0.4641901 0.1922748 0.3142779
v 0.5226248 0.2164794 4.270806E-08
v 0.4177598 0.2791394 0.3142779
v 0.4703496 0.3142789 4.270806E-08
v 0.3552753 0.3552767 0.3142779
v 0.314277 0.4703509 4.270806E-08
v 0.3999992 0.4000008 4.270806E-08
v 0.2791378 0.417761 0.3142779
v 0.2164773 0.5226256 4.270806E-08
v 0.192273 0.4641908 0.3142779
v 0.1103585 0.5548162 4.270806E-08
v 0.09801937 0.4927822 0.3142779
v -2.47269E-08 0.5656854 4.270806E-08
v -2.326332E-08 0.5024361 0.3142779
vt 0 0.5
vt 0 0.6875
vt 0.03125 0.6875
vt 0.03125 0.5
vt 0.0625 0.6875
vt 0.0625 0.5
vt 0.09375 0.6875
vt 0.09375 0.5
vt 0.125 0.6875
vt 0.125 0.5
vt 0.15625 0.6875
vt 0.1875 0.5
vt 0.15625 0.5
vt 0.1875 0.6875
vt 0.21875 0.5
vt 0.21875 0.6875
vt 0.25 0.5
vt 0.25 0.6875
vt 0.28125 0.6875
vt 0.28125 0.5
vt 0.3125 0.6875
vt 0.3125 0.5
vt 0.34375 0.6875
vt 0.34375 0.5
vt 0.375 0.6875
vt 0.40625 0.5
vt 0.375 0.5
vt 0.40625 0.6875
vt 0.4375 0.5
vt 0.4375 0.6875
vt 0.46875 0.5
vt 0.46875 0.6875
vt 0.5000001 0.5
vt 0.5000001 0.6875
vt 0.5312501 0.6875
vt 0.5312501 0.5
vt 0.5625001 0.6875
vt 0.5625001 0.5
vt 0.5937501 0.6875
vt 0.5937501 0.5
vt 0.6250001 0.6875
vt 0.6250001 0.5
vt 0.6562501 0.6875
vt 0.6875001 0.5
vt 0.6562501 0.5
vt 0.6875001 0.6875
vt 0.7187501 0.5
vt 0.7187501 0.6875
vt 0.7500001 0.5
vt 0.7500001 0.6875
vt 0.7812501 0.6875
vt 0.7812501 0.5
vt 0.8125002 0.6875
vt 0.8125002 0.5
vt 0.8437502 0.6875
vt 0.8437502 0.5
vt 0.8750002 0.6875
vt 0.9062502 0.5
vt 0.8750002 0.5
vt 0.9062502 0.6875
vt 0.9375002 0.5
vt 0.9375002 0.6875
vt 0.9687502 0.5
vt 0.9687502 0.6875
vt 1 0.5
vt 1 0.6875
vn -8.201899E-07 0.9803438 0.1972969
vn -8.426049E-07 0.9803438 0.1972969
vn -0.1912556 0.9615068 0.1972968
vn -0.1912556 0.9615068 0.1972969
vn -0.3751611 0.9057196 0.1972969
vn -0.3751611 0.9057196 0.1972969
vn -0.5446497 0.8151261 0.1972968
vn -0.5446497 0.8151261 0.1972968
vn -0.6220397 0.7579578 0.1963834
vn -0.6220397 0.7579578 0.1963834
vn -0.8647477 0.4622173 0.1963833
vn -0.9057196 0.3751611 0.1972966
vn -0.8647477 0.4622173 0.1963833
vn -0.9057196 0.3751611 0.1972966
vn -0.9615068 0.1912553 0.1972966
vn -0.9615068 0.1912553 0.1972966
vn -0.9803438 -2.701802E-07 0.1972966
vn -0.9803438 -2.730228E-07 0.1972966
vn -0.9615068 -0.191256 0.1972967
vn -0.9615068 -0.191256 0.1972967
vn -0.9057195 -0.3751617 0.1972966
vn -0.9057195 -0.3751617 0.1972966
vn -0.8647476 -0.4622177 0.1963833
vn -0.8647476 -0.4622177 0.1963833
vn -0.6220391 -0.7579584 0.1963833
vn -0.5446493 -0.8151264 0.1972966
vn -0.6220392 -0.7579583 0.1963833
vn -0.5446493 -0.8151265 0.1972966
vn -0.3751605 -0.9057199 0.1972967
vn -0.3751605 -0.9057199 0.1972967
vn -0.1912546 -0.961507 0.1972967
vn -0.1912546 -0.961507 0.1972967
vn 8.201901E-07 -0.9803438 0.1972966
vn 8.143611E-07 -0.9803438 0.1972966
vn 0.1912566 -0.9615065 0.1972966
vn 0.1912566 -0.9615065 0.1972966
vn 0.3751625 -0.9057192 0.1972966
vn 0.3751625 -0.9057192 0.1972966
vn 0.5446509 -0.8151253 0.1972967
vn 0.5446509 -0.8151253 0.1972967
vn 0.6220409 -0.7579569 0.1963834
vn 0.6220409 -0.7579569 0.1963834
vn 0.8647484 -0.4622162 0.1963835
vn 0.9057202 -0.3751601 0.1972968
vn 0.8647484 -0.4622162 0.1963835
vn 0.9057202 -0.3751601 0.1972968
vn 0.9615071 -0.1912541 0.1972968
vn 0.9615071 -0.1912541 0.1972968
vn 0.9803438 1.625906E-06 0.1972969
vn 0.9803438 1.624015E-06 0.1972969
vn 0.9615064 0.1912572 0.1972969
vn 0.9615064 0.1912571 0.1972969
vn 0.905719 0.3751629 0.1972969
vn 0.905719 0.3751629 0.1972969
vn 0.8647469 0.4622189 0.1963836
vn 0.8647469 0.4622189 0.1963836
vn 0.6220388 0.7579587 0.1963835
vn 0.5446484 0.8151271 0.1972968
vn 0.6220387 0.7579587 0.1963835
vn 0.5446485 0.8151271 0.1972968
vn 0.3751595 0.9057202 0.1972969
vn 0.3751595 0.9057204 0.1972968
vn 0.191254 0.9615071 0.1972969
vn 0.191254 0.9615071 0.1972969
vn -8.201899E-07 0.9803438 0.1972969
vn -8.426049E-07 0.9803438 0.1972969
g FX_MESH_CH0187_Hud_22c_0
f 3/3/3 2/2/2 1/1/1
f 1/1/1 4/4/4 3/3/3
f 5/5/5 3/3/3 4/4/4
f 4/4/4 6/6/6 5/5/5
f 7/7/7 5/5/5 6/6/6
f 6/6/6 8/8/8 7/7/7
f 9/9/9 7/7/7 8/8/8
f 8/8/8 10/10/10 9/9/9
f 13/13/13 12/12/12 11/11/11
f 14/14/14 11/11/11 12/12/12
f 12/12/12 15/15/15 14/14/14
f 16/16/16 14/14/14 15/15/15
f 15/15/15 17/17/17 16/16/16
f 18/18/18 16/16/16 17/17/17
f 19/19/19 18/18/18 17/17/17
f 17/17/17 20/20/20 19/19/19
f 21/21/21 19/19/19 20/20/20
f 20/20/20 22/22/22 21/21/21
f 23/23/23 21/21/21 22/22/22
f 22/22/22 24/24/24 23/23/23
f 27/27/27 26/26/26 25/25/25
f 28/28/28 25/25/25 26/26/26
f 26/26/26 29/29/29 28/28/28
f 30/30/30 28/28/28 29/29/29
f 29/29/29 31/31/31 30/30/30
f 32/32/32 30/30/30 31/31/31
f 31/31/31 33/33/33 32/32/32
f 34/34/34 32/32/32 33/33/33
f 35/35/35 34/34/34 33/33/33
f 33/33/33 36/36/36 35/35/35
f 37/37/37 35/35/35 36/36/36
f 36/36/36 38/38/38 37/37/37
f 39/39/39 37/37/37 38/38/38
f 38/38/38 40/40/40 39/39/39
f 41/41/41 39/39/39 40/40/40
f 40/40/40 42/42/42 41/41/41
f 45/45/45 44/44/44 43/43/43
f 46/46/46 43/43/43 44/44/44
f 44/44/44 47/47/47 46/46/46
f 48/48/48 46/46/46 47/47/47
f 47/47/47 49/49/49 48/48/48
f 50/50/50 48/48/48 49/49/49
f 51/51/51 50/50/50 49/49/49
f 49/49/49 52/52/52 51/51/51
f 53/53/53 51/51/51 52/52/52
f 52/52/52 54/54/54 53/53/53
f 55/55/55 53/53/53 54/54/54
f 54/54/54 56/56/56 55/55/55
f 59/59/59 58/58/58 57/57/57
f 60/60/60 57/57/57 58/58/58
f 58/58/58 61/61/61 60/60/60
f 62/62/62 60/60/60 61/61/61
f 61/61/61 63/63/63 62/62/62
f 64/64/64 62/62/62 63/63/63
f 63/63/63 65/65/65 64/64/64
f 66/66/66 64/64/64 65/65/65
