g FX_MESH_CH0187_Hud_Radar_07
v -0.6181734 -0.4145525 -4.451688E-07
v -0.6254399 -0.4056401 -4.451688E-07
v -0.5566437 -0.3942376 -4.451688E-07
v -0.5493771 -0.4031499 -4.451688E-07
v -0.485271 -0.3847674 -4.451688E-07
v -0.4780045 -0.3936798 -4.451688E-07
v -0.4138983 -0.3749751 -4.451688E-07
v -0.4066318 -0.3838876 -4.451688E-07
v -0.3412375 -0.3664711 -4.451688E-07
v -0.3339709 -0.3753835 -4.451688E-07
v -0.2680143 -0.3611196 -4.451688E-07
v -0.2607477 -0.370032 -4.451688E-07
v -0.3267044 -0.3842959 -4.451688E-07
v -0.1952466 -0.3580453 -4.451688E-07
v -0.2534812 -0.3789443 -4.451688E-07
v -0.18798 -0.3669577 -4.451688E-07
v -0.1807135 -0.37587 -4.451688E-07
v -0.1405922 -0.3093118 -4.451688E-07
v -0.1260592 -0.3271366 -4.451688E-07
v -0.06779113 -0.3077177 -4.451688E-07
v -0.06052459 -0.3255425 -4.451688E-07
v 0 -0.30749 -4.451688E-07
v 0 -0.3253148 -4.451688E-07
v 0.06052459 -0.3255425 -4.5046E-07
v 0.06779113 -0.3077177 -4.510953E-07
v 0.1260592 -0.3271366 -4.561892E-07
v 0.1405922 -0.3093118 -4.574597E-07
v 0.18798 -0.3669577 -4.616025E-07
v 0.1807135 -0.37587 -4.609673E-07
v 0.1952466 -0.3580453 -4.622378E-07
v 0.2534812 -0.3789443 -4.673288E-07
v 0.2607477 -0.370032 -4.679641E-07
v 0.3267044 -0.3842959 -4.737302E-07
v 0.2680143 -0.3611196 -4.685994E-07
v 0.3339709 -0.3753835 -4.743655E-07
v 0.3412375 -0.3664711 -4.750007E-07
v 0.4066318 -0.3838876 -4.807177E-07
v 0.4138983 -0.3749751 -4.813529E-07
v 0.4780045 -0.3936798 -4.869573E-07
v 0.485271 -0.3847674 -4.875926E-07
v 0.5493771 -0.4031499 -4.931969E-07
v 0.5566437 -0.3942376 -4.938321E-07
v 0.6181734 -0.4145525 -4.992112E-07
v 0.6254399 -0.4056401 -4.998465E-07
v 0.6271959 0.4088938 -5E-07
v 0.6271959 0.3966557 -5E-07
v 0.5533983 0.3985328 -4.935484E-07
v 0.5533983 0.3862947 -4.935484E-07
v 0.4390446 0.3848869 -4.835513E-07
v 0.4390446 0.3726488 -4.835513E-07
v 0.3320055 0.3740667 -4.741937E-07
v 0.3320055 0.3618287 -4.741937E-07
v 0.1625661 0.363046 -4.593808E-07
v 0.14067 0.3493838 -4.574665E-07
v 0.03681513 0.3548669 -4.483873E-07
v 0.14067 0.3738599 -4.574665E-07
v 0.03681513 0.3671049 -4.483873E-07
v 0.03681513 0.3426289 -4.483873E-07
v 0 0.3323231 -4.451688E-07
v 0 0.3078471 -4.451688E-07
v -0.03681513 0.3426289 -4.451688E-07
v -0.03681513 0.3548669 -4.451688E-07
v -0.03681513 0.3671049 -4.451688E-07
v -0.14067 0.3738599 -4.451688E-07
v -0.14067 0.3493838 -4.451688E-07
v -0.1625661 0.363046 -4.451688E-07
v -0.3320055 0.3618287 -4.451688E-07
v -0.3320055 0.3740667 -4.451688E-07
v -0.4390445 0.3726488 -4.451688E-07
v -0.4390445 0.3848869 -4.451688E-07
v -0.5533983 0.3862947 -4.451688E-07
v -0.5533983 0.3985328 -4.451688E-07
v -0.6271959 0.3966557 -4.451688E-07
v -0.6271959 0.4088938 -4.451688E-07
vt 0 0.5
vt 0 1
vt 0 1
vt 0 0.5
vt 0 1
vt 0 0.5
vt 0 1
vt 0 0.5
vt 0 1
vt 0 0.5
vt 0 1
vt 0 0.5
vt 0 0
vt 0 1
vt 0 0
vt 0 0.5
vt 0 0
vt 0 1
vt 0 0
vt 0.5 1
vt 0.5 0
vt 1 1
vt 1 0
vt 0.5 0
vt 0.5 1
vt 0 0
vt 0 1
vt 0 0.5
vt 0 0
vt 0 1
vt 0 0
vt 0 0.5
vt 0 0
vt 0 1
vt 0 0.5
vt 0 1
vt 0 0.5
vt 0 1
vt 0 0.5
vt 0 1
vt 0 0.5
vt 0 1
vt 0 0.5
vt 0 1
vt 0 0.5
vt 0 0
vt 0 0.5
vt 0 0
vt 0 0.5
vt 0 0
vt 0 0.5
vt 0 0
vt 0 0.5
vt 0 0
vt 0 0.5
vt 0 1
vt 0 1
vt 0 0
vt 1 1
vt 1 0
vt 0 0
vt 0 0.5
vt 0 1
vt 0 1
vt 0 0
vt 0 0.5
vt 0 0
vt 0 0.5
vt 0 0
vt 0 0.5
vt 0 0
vt 0 0.5
vt 0 0
vt 0 0.5
vn 0 0 1
vn 0 0 1
vn 0 0 1
vn 0 0 1
vn 0 0 1
vn 0 0 1
vn 0 0 1
vn 0 0 1
vn 0 0 1
vn 0 0 1
vn 0 0 1
vn 0 0 1
vn 0 0 1
vn 0 0 1
vn 0 0 1
vn 0 0 1
vn 0 0 1
vn 0 0 1
vn 0 0 1
vn 0 0 1
vn 0 0 1
vn 0 0 1
vn 0 0 1
vn 0 0 1
vn 0 0 1
vn 0 0 1
vn 0 0 1
vn 0 0 1
vn 0 0 1
vn 0 0 1
vn 0 0 1
vn 0 0 1
vn 0 0 1
vn 0 0 1
vn 0 0 1
vn 0 0 1
vn 0 0 1
vn 0 0 1
vn 0 0 1
vn 0 0 1
vn 0 0 1
vn 0 0 1
vn 0 0 1
vn 0 0 1
vn 0 0 1
vn 0 0 1
vn 0 0 1
vn 0 0 1
vn 0 0 1
vn 0 0 1
vn 0 0 1
vn 0 0 1
vn 0 0 1
vn 0 0 1
vn 0 0 1
vn 0 0 1
vn 0 0 1
vn 0 0 1
vn 0 0 1
vn 0 0 1
vn 0 0 1
vn 0 0 1
vn 0 0 1
vn 0 0 1
vn 0 0 1
vn 0 0 1
vn 0 0 1
vn 0 0 1
vn 0 0 1
vn 0 0 1
vn 0 0 1
vn 0 0 1
vn 0 0 1
vn 0 0 1
g FX_MESH_CH0187_Hud_Radar_07_0
f 3/3/3 2/2/2 1/1/1
f 1/1/1 4/4/4 3/3/3
f 5/5/5 3/3/3 4/4/4
f 4/4/4 6/6/6 5/5/5
f 7/7/7 5/5/5 6/6/6
f 6/6/6 8/8/8 7/7/7
f 9/9/9 7/7/7 8/8/8
f 8/8/8 10/10/10 9/9/9
f 11/11/11 9/9/9 10/10/10
f 10/10/10 12/12/12 11/11/11
f 12/12/12 10/10/10 13/13/13
f 14/14/14 11/11/11 12/12/12
f 13/13/13 15/15/15 12/12/12
f 12/12/12 16/16/16 14/14/14
f 16/16/16 12/12/12 15/15/15
f 15/15/15 17/17/17 16/16/16
f 18/18/18 14/14/14 16/16/16
f 19/19/19 16/16/16 17/17/17
f 16/16/16 19/19/19 18/18/18
f 18/18/18 19/19/19 20/20/20
f 21/21/21 20/20/20 19/19/19
f 20/20/20 21/21/21 22/22/22
f 21/21/21 23/23/23 22/22/22
f 22/22/22 23/23/23 24/24/24
f 24/24/24 25/25/25 22/22/22
f 26/26/26 25/25/25 24/24/24
f 25/25/25 26/26/26 27/27/27
f 27/27/27 26/26/26 28/28/28
f 26/26/26 29/29/29 28/28/28
f 28/28/28 30/30/30 27/27/27
f 28/28/28 29/29/29 31/31/31
f 30/30/30 28/28/28 32/32/32
f 28/28/28 31/31/31 32/32/32
f 33/33/33 32/32/32 31/31/31
f 30/30/30 32/32/32 34/34/34
f 32/32/32 33/33/33 35/35/35
f 35/35/35 34/34/34 32/32/32
f 34/34/34 35/35/35 36/36/36
f 36/36/36 35/35/35 37/37/37
f 36/36/36 37/37/37 38/38/38
f 39/39/39 38/38/38 37/37/37
f 38/38/38 39/39/39 40/40/40
f 41/41/41 40/40/40 39/39/39
f 40/40/40 41/41/41 42/42/42
f 43/43/43 42/42/42 41/41/41
f 42/42/42 43/43/43 44/44/44
f 47/47/47 46/46/46 45/45/45
f 46/46/46 47/47/47 48/48/48
f 48/48/48 47/47/47 49/49/49
f 48/48/48 49/49/49 50/50/50
f 51/51/51 50/50/50 49/49/49
f 50/50/50 51/51/51 52/52/52
f 53/53/53 52/52/52 51/51/51
f 52/52/52 53/53/53 54/54/54
f 55/55/55 54/54/54 53/53/53
f 55/55/55 53/53/53 56/56/56
f 56/56/56 57/57/57 55/55/55
f 55/55/55 58/58/58 54/54/54
f 55/55/55 57/57/57 59/59/59
f 58/58/58 55/55/55 59/59/59
f 59/59/59 60/60/60 58/58/58
f 60/60/60 59/59/59 61/61/61
f 62/62/62 61/61/61 59/59/59
f 63/63/63 62/62/62 59/59/59
f 62/62/62 63/63/63 64/64/64
f 65/65/65 61/61/61 62/62/62
f 64/64/64 66/66/66 62/62/62
f 66/66/66 65/65/65 62/62/62
f 65/65/65 66/66/66 67/67/67
f 68/68/68 67/67/67 66/66/66
f 69/69/69 67/67/67 68/68/68
f 70/70/70 69/69/69 68/68/68
f 71/71/71 69/69/69 70/70/70
f 72/72/72 71/71/71 70/70/70
f 73/73/73 71/71/71 72/72/72
f 74/74/74 73/73/73 72/72/72
