g FX_MESH_CH0187_Hud_Radar_06
v 0.564585 0.2999048 0
v 0.8768262 0.2935284 0
v 0.8838826 0.2999048 0
v 0.564585 0.2935284 0
v 0.5522991 0.2935284 0
v 0.5522991 0.30876 0
v 0.3093743 0.3087604 0
v 0.2974904 0.2935284 0
v 0.2741882 0.3278223 0
v 0.288773 0.3371519 0
v 0.2763911 0.3371519 0
v 0.2705384 0.3331937 0
v 0.2195338 0.4217798 0
v 0.2121461 0.4217798 0
v -0.8838826 0.2999048 7.727148E-08
v -0.876826 0.2935284 7.665458E-08
v -0.564585 0.2999048 4.935759E-08
v -0.564585 0.2935284 4.935759E-08
v -0.5522991 0.2935284 4.828352E-08
v -0.5522991 0.30876 4.828352E-08
v -0.3093743 0.3087604 2.704636E-08
v -0.2974904 0.2935284 2.600743E-08
v -0.2741882 0.3278223 2.397029E-08
v -0.288773 0.3371519 2.524534E-08
v -0.2763911 0.3371519 2.416288E-08
v -0.2705384 0.3331937 2.365122E-08
v -0.2195338 0.4217798 1.919226E-08
v -0.2121461 0.4217798 1.854641E-08
v 0.9774099 -0.3308867 -1.15033E-08
v 0.9896958 -0.337263 -1.094586E-08
v 0.9985423 -0.3308867 -1.227668E-08
v 0.9774099 -0.3461182 -1.017171E-08
v 0.7344851 -0.3461187 -1.017167E-08
v 0.7226012 -0.3308867 -1.15033E-08
v 0.710347 -0.3795024 -7.380415E-09
v 0.6979651 -0.3795024 -7.380411E-09
v 0.6074111 -0.5048696 2.317995E-09
v 0.6163039 -0.5048696 2.186414E-09
v -0.9985422 -0.3308867 9.957202E-08
v -0.9896958 -0.337263 9.746782E-08
v -0.9774099 -0.3308867 9.695119E-08
v -0.9774099 -0.3461182 9.56196E-08
v -0.7344851 -0.3461187 7.438241E-08
v -0.7226012 -0.3308867 7.46751E-08
v -0.7103469 -0.3795024 6.948092E-08
v -0.6979651 -0.3795024 6.839846E-08
v -0.6074111 -0.5048696 5.078357E-08
v -0.6163039 -0.5048696 5.169258E-08
vt 0.5 1
vt 1 0
vt 1 1
vt 0.5 0
vt 0.25 0
vt 0.25 1
vt 0 1
vt 0 0
vt 0 0
vt 0 1
vt 0 1
vt 0 0
vt 0 1
vt 0 0
vt 1 1
vt 1 0
vt 0.5 1
vt 0.5 0
vt 0.25 0
vt 0.25 1
vt 0 1
vt 0 0
vt 0 0
vt 0 1
vt 0 1
vt 0 0
vt 0 1
vt 0 0
vt 0.25 0
vt 0.5 1
vt 0.5 0
vt 0.25 1
vt 0 1
vt 0 0
vt 0 1
vt 0 1
vt 0 0
vt 0 1
vt 0.5 0
vt 0.5 1
vt 0.25 0
vt 0.25 1
vt 0 1
vt 0 0
vt 0 1
vt 0 1
vt 0 0
vt 0 1
vn 0 0 -1
vn 0 0 -1
vn 0 0 -1
vn 0 0 -1
vn 0 0 -1
vn 0 0 -1
vn 0 0 -1
vn 0 0 -1
vn 0 0 -1
vn 0 0 -1
vn 0 0 -1
vn 0 0 -1
vn 0 0 -1
vn 0 0 -1
vn 0 0 -1
vn 0 0 -1
vn 0 0 -1
vn 0 0 -1
vn 0 0 -1
vn 0 0 -1
vn 0 0 -1
vn 0 0 -1
vn 0 0 -1
vn 0 0 -1
vn 0 0 -1
vn 0 0 -1
vn 0 0 -1
vn 0 0 -1
vn 0 -1.021828E-07 -1
vn 0 -1.169428E-07 -1
vn 0 -1.169428E-07 -1
vn 0 0 -1
vn 0 0 -1
vn 0 0 -1
vn 0 0 -1
vn 0 0 -1
vn 0 0 -1
vn 0 0 -1
vn -1.027431E-07 1.16943E-07 -1
vn -1.027431E-07 1.16943E-07 -1
vn 0 1.021828E-07 -1
vn 0 0 -1
vn 0 0 -1
vn 0 0 -1
vn 0 0 -1
vn 0 0 -1
vn 0 0 -1
vn 0 0 -1
g FX_MESH_CH0187_Hud_Radar_06_0
f 3/3/3 2/2/2 1/1/1
f 4/4/4 1/1/1 2/2/2
f 1/1/1 4/4/4 5/5/5
f 5/5/5 6/6/6 1/1/1
f 7/7/7 6/6/6 5/5/5
f 5/5/5 8/8/8 7/7/7
f 7/7/7 8/8/8 9/9/9
f 9/9/9 10/10/10 7/7/7
f 11/11/11 10/10/10 9/9/9
f 9/9/9 12/12/12 11/11/11
f 11/11/11 12/12/12 13/13/13
f 14/14/14 13/13/13 12/12/12
f 17/17/17 16/16/16 15/15/15
f 16/16/16 17/17/17 18/18/18
f 19/19/19 18/18/18 17/17/17
f 17/17/17 20/20/20 19/19/19
f 19/19/19 20/20/20 21/21/21
f 21/21/21 22/22/22 19/19/19
f 23/23/23 22/22/22 21/21/21
f 21/21/21 24/24/24 23/23/23
f 23/23/23 24/24/24 25/25/25
f 25/25/25 26/26/26 23/23/23
f 27/27/27 26/26/26 25/25/25
f 26/26/26 27/27/27 28/28/28
f 31/31/31 30/30/30 29/29/29
f 32/32/32 29/29/29 30/30/30
f 29/29/29 32/32/32 33/33/33
f 33/33/33 34/34/34 29/29/29
f 34/34/34 33/33/33 35/35/35
f 34/34/34 35/35/35 36/36/36
f 34/34/34 36/36/36 37/37/37
f 38/38/38 37/37/37 36/36/36
f 41/41/41 40/40/40 39/39/39
f 40/40/40 41/41/41 42/42/42
f 43/43/43 42/42/42 41/41/41
f 41/41/41 44/44/44 43/43/43
f 45/45/45 43/43/43 44/44/44
f 44/44/44 46/46/46 45/45/45
f 47/47/47 46/46/46 44/44/44
f 47/47/47 48/48/48 46/46/46
