g FX_MESH_CH0187_Hud_Radar_08
v 0.4471084 -0.4836974 0
v 0.354266 -0.4969593 0
v 0.354266 -0.4836974 0
v 0.4474032 -0.4969593 0
v 0.5053126 -0.4836974 0
v 0.5052995 -0.4969593 0
v 0.4583465 -0.513279 0
v 0.53342 -0.513279 0
v 0.5443907 -0.4969593 0
v 0.5534357 -0.4836974 0
v 0.563035 -0.3947156 0
v 0.598159 -0.4158761 0
v 0.6373026 -0.3578741 -4.608431E-09
v 0.6125394 -0.319934 -6.476132E-10
v 0.6451988 -0.345708 -4.095061E-09
v 0.6238062 -0.3129322 -6.733846E-10
v 0.6548237 -0.3305963 -3.448666E-09
v 0.6137908 -0.267729 3.114458E-09
v 0.594143 -0.2674848 4.071155E-09
v 0.5828762 -0.2744866 4.096927E-09
v 0.5432367 -0.1894907 1.221346E-08
v 0.5321311 -0.1967393 1.221346E-08
v -0.354266 -0.4836974 -3.097092E-08
v -0.354266 -0.4969593 -3.097092E-08
v -0.4471084 -0.4836974 -3.908746E-08
v -0.4474032 -0.4969593 -3.911323E-08
v -0.5053126 -0.4836974 -4.417583E-08
v -0.5052995 -0.4969593 -4.417468E-08
v -0.4583465 -0.513279 -4.006992E-08
v -0.53342 -0.513279 -4.663305E-08
v -0.5443908 -0.4969593 -4.759215E-08
v -0.5534357 -0.4836974 -4.838289E-08
v -0.563035 -0.3947156 -4.922208E-08
v -0.598159 -0.4158761 -5.229272E-08
v -0.6373026 -0.3578741 -5.110633E-08
v -0.6125394 -0.319934 -5.290228E-08
v -0.6451988 -0.345708 -5.231E-08
v -0.6238062 -0.3129322 -5.386148E-08
v -0.6548238 -0.3305963 -5.379785E-08
v -0.6137908 -0.267729 -5.677375E-08
v -0.594143 -0.2674848 -5.601278E-08
v -0.5828762 -0.2744866 -5.505358E-08
v -0.5432367 -0.1894907 -5.970473E-08
v -0.5321311 -0.1967393 -5.873384E-08
v 0.1015186 0.464822 -2.965648E-09
v 0 0.464822 -2.965647E-09
v 0 0.5173883 -3.068388E-09
v 0.1210078 0.5173883 -3.068388E-09
v 0.161594 0.461188 0
v 0.1196378 0.4366582 0
v 0.1621822 0.4262434 0
v 0.137757 0.4083651 0
v 0.2400458 0.3077962 0
v 0.2131324 0.2906663 0
v 0 0.5173883 3.06838E-09
v 0 0.464822 2.965644E-09
v -0.1015186 0.464822 -3.011332E-08
v -0.1210078 0.5173883 -3.636095E-08
v -0.161594 0.461188 -5.265399E-08
v -0.1196378 0.4366582 -3.898295E-08
v -0.1543675 0.4210335 -5.284568E-08
v -0.137757 0.4083651 -4.488694E-08
v -0.2322311 0.3025864 -7.821684E-08
v -0.2131324 0.2906663 -6.944735E-08
vt 0.5 1
vt 0 0
vt 0 1
vt 0.5 0
vt 0.75 1
vt 0.75 0
vt 0.5 0
vt 1 0
vt 1 0
vt 1 1
vt 0.75 1
vt 1 1
vt 1 1
vt 0.75 1
vt 1 0
vt 0.75 0
vt 1 0
vt 0.5 0
vt 0.5 0
vt 0.5 1
vt 0 0
vt 0 1
vt 0 1
vt 0 0
vt 0.5 1
vt 0.5 0
vt 0.75 1
vt 0.75 0
vt 0.5 0
vt 1 0
vt 1 0
vt 1 1
vt 0.75 1
vt 1 1
vt 1 1
vt 0.75 1
vt 1 0
vt 0.75 0
vt 1 0
vt 0.5 0
vt 0.5 0
vt 0.5 1
vt 0 0
vt 0 1
vt 1 0
vt 0 0
vt 0 1
vt 1 1
vt 1 1
vt 1 0
vt 1 1
vt 1 0
vt 1 1
vt 1 0
vt 0 1
vt 0 0
vt 1 0
vt 1 1
vt 1 1
vt 1 0
vt 1 1
vt 1 0
vt 1 1
vt 1 0
vn 0 0 1
vn 0 0 1
vn 0 0 1
vn 0 0 1
vn 0 0 1
vn 0 0 1
vn 0 0 1
vn 0 0 1
vn 0 0 1
vn 0 0 1
vn 0 0 1
vn 0 0 1
vn 0 0 1
vn 0 0 1
vn 0 0 1
vn 0 0 1
vn 0 0 1
vn 0 0 1
vn 0 0 1
vn 0 0 1
vn 0 0 1
vn 0 0 1
vn 0 0 1
vn 0 0 1
vn 0 0 1
vn 0 0 1
vn 0 0 1
vn 0 0 1
vn 0 0 1
vn 0 0 1
vn 0 0 1
vn 0 0 1
vn 0 0 1
vn 0 0 1
vn 0 0 1
vn 0 0 1
vn 0 0 1
vn 0 0 1
vn 0 0 1
vn 0 0 1
vn 0 0 1
vn 0 0 1
vn 0 0 1
vn 0 0 1
vn 0 0 1
vn 0 0 1
vn 0 0 1
vn 0 0 1
vn 0 0 1
vn 0 0 1
vn 0 0 1
vn 0 0 1
vn 0 0 1
vn 0 0 1
vn -3.258413E-07 0 1
vn -3.258413E-07 0 1
vn -3.258413E-07 0 1
vn -3.258413E-07 0 1
vn -3.728593E-07 0 1
vn -3.728594E-07 0 1
vn -4.244131E-07 0 1
vn -4.244131E-07 0 1
vn -4.244131E-07 0 1
vn -4.244131E-07 0 1
g FX_MESH_CH0187_Hud_Radar_08_0
f 3/3/3 2/2/2 1/1/1
f 2/2/2 4/4/4 1/1/1
f 1/1/1 4/4/4 5/5/5
f 4/4/4 6/6/6 5/5/5
f 4/4/4 7/7/7 6/6/6
f 6/6/6 7/7/7 8/8/8
f 8/8/8 9/9/9 6/6/6
f 5/5/5 6/6/6 9/9/9
f 9/9/9 10/10/10 5/5/5
f 11/11/11 5/5/5 10/10/10
f 12/12/12 11/11/11 10/10/10
f 11/11/11 12/12/12 13/13/13
f 13/13/13 14/14/14 11/11/11
f 14/14/14 13/13/13 15/15/15
f 15/15/15 16/16/16 14/14/14
f 16/16/16 15/15/15 17/17/17
f 17/17/17 18/18/18 16/16/16
f 16/16/16 18/18/18 19/19/19
f 14/14/14 16/16/16 19/19/19
f 19/19/19 20/20/20 14/14/14
f 21/21/21 20/20/20 19/19/19
f 20/20/20 21/21/21 22/22/22
f 25/25/25 24/24/24 23/23/23
f 24/24/24 25/25/25 26/26/26
f 26/26/26 25/25/25 27/27/27
f 27/27/27 28/28/28 26/26/26
f 28/28/28 29/29/29 26/26/26
f 30/30/30 29/29/29 28/28/28
f 28/28/28 31/31/31 30/30/30
f 31/31/31 28/28/28 27/27/27
f 27/27/27 32/32/32 31/31/31
f 32/32/32 27/27/27 33/33/33
f 33/33/33 34/34/34 32/32/32
f 35/35/35 34/34/34 33/33/33
f 33/33/33 36/36/36 35/35/35
f 37/37/37 35/35/35 36/36/36
f 36/36/36 38/38/38 37/37/37
f 39/39/39 37/37/37 38/38/38
f 38/38/38 40/40/40 39/39/39
f 41/41/41 40/40/40 38/38/38
f 41/41/41 38/38/38 36/36/36
f 42/42/42 41/41/41 36/36/36
f 43/43/43 41/41/41 42/42/42
f 44/44/44 43/43/43 42/42/42
f 47/47/47 46/46/46 45/45/45
f 45/45/45 48/48/48 47/47/47
f 49/49/49 48/48/48 45/45/45
f 49/49/49 45/45/45 50/50/50
f 50/50/50 51/51/51 49/49/49
f 50/50/50 52/52/52 51/51/51
f 53/53/53 51/51/51 52/52/52
f 52/52/52 54/54/54 53/53/53
f 57/57/57 56/56/56 55/55/55
f 55/55/55 58/58/58 57/57/57
f 57/57/57 58/58/58 59/59/59
f 59/59/59 60/60/60 57/57/57
f 59/59/59 61/61/61 60/60/60
f 60/60/60 61/61/61 62/62/62
f 63/63/63 62/62/62 61/61/61
f 62/62/62 63/63/63 64/64/64
