g FX_MESH_CH0187_Hud_16
v 0 0 0.5
v 0.08110574 0.05419334 0.4903926
v 0.09011991 0.03732908 0.4903926
v 0.1590946 0.1063041 0.4619397
v 0.1767766 0.07322362 0.4619397
v 0.2309696 0.1543296 0.4157348
v 0.2566398 0.1063042 0.4157348
v 0.2939685 0.1964243 0.3535534
v 0.3266405 0.1352996 0.3535534
v 0.3840886 0.1590955 0.2777851
v 0.3456704 0.2309705 0.2777851
v 0.2939683 0.2939695 0.2777851
v 0.4267763 0.1767774 0.1913417
v 0.3840884 0.2566407 0.1913417
v 0.4619394 0.1913425 3.774895E-08
v 0.4157343 0.2777859 3.774895E-08
v 0.3266401 0.3266414 0.1913417
v 0.3535527 0.3535541 3.774895E-08
v 0.2777843 0.4157354 3.774895E-08
v 0.2566392 0.3840894 0.1913417
v 0.1913407 0.4619401 3.774895E-08
v 0.2499995 0.2500005 0.3535534
v 0.1767758 0.426777 0.1913417
v 0.0975441 0.4903929 3.774895E-08
v 0.2309692 0.3456714 0.2777851
v 0.09011899 0.4530639 0.1913417
v -2.185569E-08 0.5 3.774895E-08
v -2.019203E-08 0.4619397 0.1913417
v 0.1964231 0.2939693 0.3535534
v 0.159094 0.3840892 0.2777851
v 0.08110496 0.4077468 0.2777851
v -1.817235E-08 0.4157348 0.2777851
v 0.1964234 0.1964241 0.4157348
v 0.1352983 0.326641 0.3535534
v 0.06897409 0.3467601 0.3535534
v -1.545431E-08 0.3535534 0.3535534
v -1.214237E-08 0.2777851 0.4157348
v 0.1543287 0.2309702 0.4157348
v 0.1063032 0.2566402 0.4157348
v 0.1352988 0.1352993 0.4619397
v 0.0541926 0.2724477 0.4157348
v 0.03732851 0.1876652 0.4619397
v -8.363812E-09 0.1913417 0.4619397
v 0.1063035 0.159095 0.4619397
v 0.07322294 0.1767768 0.4619397
v 0.01902991 0.09567091 0.4903926
v -4.263835E-09 0.09754516 0.4903926
v 0 0 0.5
v 0.06897471 0.06897498 0.4903926
v 0 0 0.5
v 0.05419303 0.08110595 0.4903926
v 0 0 0.5
v 0.03732873 0.09012005 0.4903926
v 0 0 0.5
v 0 0 0.5
vt 1.004456 0.9995
vt 0.8371298 0.8746248
vt 1.004456 0.8746248
vt 0.8371298 0.7497499
vt 1.004456 0.7497499
vt 0.8371298 0.6114796
vt 1.004456 0.6114796
vt 0.8371298 0.4651724
vt 1.004456 0.4651724
vt 1.004456 0.310828
vt 0.8371298 0.310828
vt 0.6698037 0.310828
vt 1.004456 0.1457678
vt 0.8371298 0.1457678
vt 1.004456 0.0005
vt 0.8371298 0.0005
vt 0.6698037 0.1457678
vt 0.6698037 0.0005
vt 0.5024781 0.0005
vt 0.5024781 0.1457678
vt 0.3351517 0.0005
vt 0.6698037 0.4651724
vt 0.3351517 0.1457678
vt 0.1678262 0.0005
vt 0.5024781 0.310828
vt 0.1678262 0.1457678
vt 0.0004999638 0.0005
vt 0.0004999638 0.1457678
vt 0.5024781 0.4651724
vt 0.3351517 0.310828
vt 0.1678262 0.310828
vt 0.0004999638 0.310828
vt 0.6698037 0.6114796
vt 0.3351517 0.4651724
vt 0.1678262 0.4651724
vt 0.0004999638 0.4651724
vt 0.0004999638 0.6114796
vt 0.5024781 0.6114796
vt 0.3351517 0.6114796
vt 0.6698037 0.7497499
vt 0.1678262 0.6114796
vt 0.1678262 0.7497499
vt 0.0004999638 0.7497499
vt 0.5024781 0.7497499
vt 0.3351517 0.7497499
vt 0.1678262 0.8746248
vt 0.0004999638 0.8746248
vt 0.1678262 0.9995
vt 0.6698037 0.8746248
vt 0.8371298 0.9995
vt 0.5024781 0.8746248
vt 0.6698037 0.9995
vt 0.3351517 0.8746248
vt 0.3351517 0.9995
vt 0.5024781 0.9995
vn 0.05171666 0.07739957 0.9956579
vn 0.1670994 0.1116527 0.9795976
vn 0.1780613 0.0951762 0.9794057
vn 0.3225157 0.215499 0.921707
vn 0.34349 0.1836001 0.9210351
vn 0.4654353 0.3109952 0.8286447
vn 0.4953134 0.2647517 0.8273882
vn 0.5904603 0.3945346 0.704059
vn 0.6277849 0.3355594 0.7023431
vn 0.7360205 0.3934128 0.5509086
vn 0.6928958 0.46298 0.5527611
vn 0.589259 0.5892613 0.5527611
vn 0.8317142 0.4445624 0.3325897
vn 0.7837141 0.523663 0.3340198
vn 0.8651327 0.4624251 0.1941866
vn 0.8154922 0.5448965 0.1950905
vn 0.6664935 0.6664962 0.3340198
vn 0.6935185 0.6935211 0.1950905
vn 0.5448935 0.8154942 0.1950905
vn 0.5236601 0.7837161 0.3340198
vn 0.3753284 0.9061281 0.1950905
vn 0.5021449 0.5021468 0.7040591
vn 0.3607027 0.8708183 0.3340198
vn 0.1913401 0.9619401 0.1950906
vn 0.4629775 0.6928976 0.5527612
vn 0.183884 0.9244552 0.3340198
vn 0.09615013 0.9762411 0.1941867
vn 0.09243606 0.9385306 0.3325897
vn 0.3945324 0.5904617 0.7040591
vn 0.3189037 0.7699062 0.5527611
vn 0.1625751 0.8173276 0.5527611
vn 0.08180081 0.8305469 0.5509087
vn 0.39582 0.3958215 0.8286446
vn 0.2717579 0.6560857 0.7040591
vn 0.1385405 0.6964965 0.7040592
vn 0.06977163 0.7084108 0.7023433
vn 0.05504881 0.5589262 0.8273882
vn 0.3109935 0.4654365 0.8286446
vn 0.2142155 0.5171651 0.8286447
vn 0.2742769 0.274278 0.921707
vn 0.1092058 0.5490193 0.8286447
vn 0.07567237 0.3804339 0.921707
vn 0.0381752 0.3876041 0.9210352
vn 0.2154978 0.3225165 0.921707
vn 0.1484371 0.358361 0.921707
vn 0.0392068 0.1971075 0.9795976
vn 0.01978956 0.2009295 0.9794057
vn 0.05171666 0.07739957 0.9956579
vn 0.1421062 0.1421068 0.9795976
vn 0.05171666 0.07739957 0.9956579
vn 0.1116521 0.1670998 0.9795976
vn 0.05171666 0.07739957 0.9956579
vn 0.07690713 0.1856713 0.9795976
vn 0.05171666 0.07739957 0.9956579
vn 0.05171666 0.07739957 0.9956579
g FX_MESH_CH0187_Hud_16_0
f 3/3/3 2/2/2 1/1/1
f 2/2/2 3/3/3 4/4/4
f 5/5/5 4/4/4 3/3/3
f 4/4/4 5/5/5 6/6/6
f 7/7/7 6/6/6 5/5/5
f 7/7/7 8/8/8 6/6/6
f 9/9/9 8/8/8 7/7/7
f 8/8/8 9/9/9 10/10/10
f 10/10/10 11/11/11 8/8/8
f 12/12/12 8/8/8 11/11/11
f 11/11/11 10/10/10 13/13/13
f 13/13/13 14/14/14 11/11/11
f 12/12/12 11/11/11 14/14/14
f 14/14/14 13/13/13 15/15/15
f 15/15/15 16/16/16 14/14/14
f 17/17/17 14/14/14 16/16/16
f 14/14/14 17/17/17 12/12/12
f 16/16/16 18/18/18 17/17/17
f 18/18/18 19/19/19 17/17/17
f 20/20/20 17/17/17 19/19/19
f 17/17/17 20/20/20 12/12/12
f 19/19/19 21/21/21 20/20/20
f 8/8/8 22/22/22 6/6/6
f 12/12/12 22/22/22 8/8/8
f 23/23/23 20/20/20 21/21/21
f 21/21/21 24/24/24 23/23/23
f 25/25/25 12/12/12 20/20/20
f 20/20/20 23/23/23 25/25/25
f 26/26/26 23/23/23 24/24/24
f 26/26/26 24/24/24 27/27/27
f 27/27/27 28/28/28 26/26/26
f 12/12/12 25/25/25 29/29/29
f 29/29/29 22/22/22 12/12/12
f 25/25/25 23/23/23 30/30/30
f 23/23/23 26/26/26 30/30/30
f 25/25/25 30/30/30 29/29/29
f 26/26/26 28/28/28 31/31/31
f 30/30/30 26/26/26 31/31/31
f 31/31/31 28/28/28 32/32/32
f 22/22/22 33/33/33 6/6/6
f 6/6/6 33/33/33 4/4/4
f 30/30/30 31/31/31 34/34/34
f 34/34/34 29/29/29 30/30/30
f 31/31/31 32/32/32 35/35/35
f 34/34/34 31/31/31 35/35/35
f 35/35/35 32/32/32 36/36/36
f 35/35/35 36/36/36 37/37/37
f 22/22/22 29/29/29 38/38/38
f 38/38/38 33/33/33 22/22/22
f 29/29/29 34/34/34 39/39/39
f 39/39/39 34/34/34 35/35/35
f 39/39/39 38/38/38 29/29/29
f 33/33/33 40/40/40 4/4/4
f 4/4/4 40/40/40 2/2/2
f 37/37/37 41/41/41 35/35/35
f 35/35/35 41/41/41 39/39/39
f 42/42/42 41/41/41 37/37/37
f 39/39/39 41/41/41 42/42/42
f 37/37/37 43/43/43 42/42/42
f 33/33/33 38/38/38 44/44/44
f 44/44/44 40/40/40 33/33/33
f 38/38/38 39/39/39 45/45/45
f 42/42/42 45/45/45 39/39/39
f 45/45/45 44/44/44 38/38/38
f 46/46/46 42/42/42 43/43/43
f 45/45/45 42/42/42 46/46/46
f 43/43/43 47/47/47 46/46/46
f 46/46/46 47/47/47 48/48/48
f 49/49/49 2/2/2 40/40/40
f 2/2/2 49/49/49 50/50/50
f 40/40/40 44/44/44 51/51/51
f 51/51/51 49/49/49 40/40/40
f 44/44/44 45/45/45 51/51/51
f 49/49/49 51/51/51 52/52/52
f 46/46/46 53/53/53 45/45/45
f 45/45/45 53/53/53 51/51/51
f 53/53/53 46/46/46 54/54/54
f 51/51/51 53/53/53 55/55/55
