g FX_MESH_CH0187_Hud_22a
v 0.04755889 -0.1412295 2.31914E-08
v -0.04755967 -0.1412284 2.806201E-08
v -7.812258E-08 -0.223604 5.366236E-09
v 0.09829158 0.1117409 -1.428484E-07
v 0.1458499 0.02936532 -7.185612E-08
v 0.1934095 0.1117409 -2.051897E-07
v -0.1462736 0.0293665 -1.060465E-07
v -0.09871341 0.1117411 -1.456911E-07
v -0.1938326 0.111741 -2.34508E-07
vt 0.1666667 0.5
vt 0.6666666 1
vt 0.3333333 0.375
vt 0.1666667 0.5
vt 0.6666666 1
vt 0.3333333 0.375
vt 0.1666667 0.5
vt 0.6666666 1
vt 0.3333333 0.375
vn 0 0 -1
vn 0 0 -1
vn 0 0 -1
vn 0 0 -1
vn 0 0 -1
vn 0 0 -1
vn 0 0 -1
vn 0 0 -1
vn 0 0 -1
g FX_MESH_CH0187_Hud_22a_0
f 3/3/3 2/2/2 1/1/1
f 6/6/6 5/5/5 4/4/4
f 9/9/9 8/8/8 7/7/7
