g FX_MESH_CH0187_Hud_07
v -0.2295032 0.2295033 0.1913417
v -0.2762115 0.2726667 3.774915E-08
v -0.3248666 0.2133801 3.774919E-08
v -0.2698673 0.1803196 0.1913417
v -0.3610207 0.1457406 3.774922E-08
v -0.2998605 0.1242063 0.1913417
v -0.3832842 0.07234744 3.774923E-08
v -0.3183301 0.06331978 0.1913417
v -0.3908017 -0.003978903 3.774923E-08
v -0.3245666 -5.098565E-08 0.1913417
v -0.1803193 -0.2698674 0.1913417
v -0.2169247 -0.3292795 3.774911E-08
v -0.1492851 -0.3654335 3.774906E-08
v -0.124206 -0.2998605 0.1913417
v -0.07589195 -0.3876971 3.774901E-08
v -0.06331951 -0.3183301 0.1913417
v 0.000434398 -0.3952145 3.774895E-08
v 3.225246E-07 -0.3245666 0.1913417
v 0.06332015 -0.31833 0.1913417
v 0.07676073 -0.3876969 3.774889E-08
v 0.1242066 -0.2998603 0.1913417
v 0.1501539 -0.3654333 3.774884E-08
v 0.1803199 -0.269867 0.1913417
v 0.2177933 -0.3292791 3.774879E-08
v 0.2295035 -0.2295029 0.1913417
v 0.2770798 -0.2806239 3.774875E-08
v 0.2998607 -0.1242058 0.1913417
v 0.3618889 -0.1536977 3.774869E-08
v 0.3841524 -0.0803045 3.774867E-08
v 0.3183302 -0.06331926 0.1913417
v 0.3916698 -0.003978148 3.774867E-08
v 0.3245666 5.758168E-07 0.1913417
v 0.31833 0.0633204 0.1913417
v 0.3841522 0.07234817 3.774867E-08
v 0.2998602 0.1242068 0.1913417
v 0.3618885 0.1457413 3.774869E-08
v 0.2698669 0.1803201 0.1913417
v 0.3257343 0.2133808 3.774871E-08
v 0.2295028 0.2295037 0.1913417
v 0.2770789 0.2726672 3.774875E-08
v 0.2177923 0.3213224 3.774879E-08
v 0.180319 0.2698677 0.1913417
v 0.1501527 0.3574763 3.774884E-08
v 0.1242056 0.2998608 0.1913417
vt 0.125 0.625
vt 0.125 0.5
vt 0.15625 0.5
vt 0.15625 0.625
vt 0.1875 0.5
vt 0.1875 0.625
vt 0.21875 0.5
vt 0.21875 0.625
vt 0.25 0.5
vt 0.25 0.625
vt 0.40625 0.625
vt 0.40625 0.5
vt 0.4375 0.5
vt 0.4375 0.625
vt 0.46875 0.5
vt 0.46875 0.625
vt 0.5000001 0.5
vt 0.5000001 0.625
vt 0.5312501 0.625
vt 0.5312501 0.5
vt 0.5625001 0.625
vt 0.5625001 0.5
vt 0.5937501 0.625
vt 0.5937501 0.5
vt 0.6250001 0.625
vt 0.6250001 0.5
vt 0.6875001 0.625
vt 0.6875001 0.5
vt 0.7187501 0.5
vt 0.7187501 0.625
vt 0.7500001 0.5
vt 0.7500001 0.625
vt 0.7812501 0.625
vt 0.7812501 0.5
vt 0.8125002 0.625
vt 0.8125002 0.5
vt 0.8437502 0.625
vt 0.8437502 0.5
vt 0.8750002 0.625
vt 0.8750002 0.5
vt 0.9062502 0.5
vt 0.9062502 0.625
vt 0.9375002 0.5
vt 0.9375002 0.625
vn 0.7336776 -0.6021132 -0.3149236
vn 0.7336776 -0.6021132 -0.3149237
vn 0.7888901 -0.5260684 -0.3176546
vn 0.7878972 -0.52757 -0.3176287
vn 0.8755123 -0.3615691 -0.3205402
vn 0.8747362 -0.3634727 -0.3205064
vn 0.9281757 -0.1835217 -0.3237434
vn 0.9277537 -0.1857124 -0.3237035
vn 0.9415066 -0.09273016 -0.3239852
vn 0.9415066 -0.09273016 -0.3239852
vn 0.4429601 0.8287216 -0.3420626
vn 0.4429602 0.8287216 -0.3420626
vn 0.3587835 0.8675824 -0.3443472
vn 0.3598076 0.8671621 -0.3443374
vn 0.182735 0.9203895 -0.3456747
vn 0.183413 0.9202561 -0.345671
vn -0.000121677 0.9380985 -0.3463686
vn 0.0001276992 0.9380987 -0.3463682
vn -0.1831142 0.92004 -0.3464037
vn -0.1829166 0.9200792 -0.346404
vn -0.3593865 0.8667641 -0.3457764
vn -0.3587904 0.8670098 -0.3457797
vn -0.5220172 0.7802638 -0.3445089
vn -0.5211304 0.7808524 -0.344518
vn -0.5960792 0.7263226 -0.3422648
vn -0.5960792 0.7263225 -0.3422648
vn -0.9018135 0.2735602 -0.3345104
vn -0.9018135 0.2735602 -0.3345104
vn -0.9241403 0.1849152 -0.334322
vn -0.9245856 0.1827468 -0.3342827
vn -0.9436449 0.001120056 -0.3309578
vn -0.9436598 -0.00119275 -0.3309149
vn -0.9264743 -0.1855088 -0.3274626
vn -0.926913 -0.183227 -0.3275059
vn -0.8735808 -0.3631015 -0.3240584
vn -0.8744271 -0.3610227 -0.3240987
vn -0.7869183 -0.5270908 -0.3208343
vn -0.7880634 -0.5253563 -0.320869
vn -0.6697534 -0.671088 -0.317917
vn -0.6710417 -0.669787 -0.3179438
vn -0.5278146 -0.7886125 -0.3154397
vn -0.5265613 -0.7894571 -0.3154214
vn -0.4477189 -0.8376276 -0.3129343
vn -0.4477189 -0.8376276 -0.3129343
g FX_MESH_CH0187_Hud_07_0
f 3/3/3 2/2/2 1/1/1
f 3/3/3 1/1/1 4/4/4
f 5/5/5 3/3/3 4/4/4
f 5/5/5 4/4/4 6/6/6
f 7/7/7 5/5/5 6/6/6
f 7/7/7 6/6/6 8/8/8
f 9/9/9 7/7/7 8/8/8
f 9/9/9 8/8/8 10/10/10
f 13/13/13 12/12/12 11/11/11
f 13/13/13 11/11/11 14/14/14
f 15/15/15 13/13/13 14/14/14
f 15/15/15 14/14/14 16/16/16
f 17/17/17 15/15/15 16/16/16
f 17/17/17 16/16/16 18/18/18
f 17/17/17 18/18/18 19/19/19
f 19/19/19 20/20/20 17/17/17
f 20/20/20 19/19/19 21/21/21
f 21/21/21 22/22/22 20/20/20
f 22/22/22 21/21/21 23/23/23
f 23/23/23 24/24/24 22/22/22
f 24/24/24 23/23/23 25/25/25
f 25/25/25 26/26/26 24/24/24
f 29/29/29 28/28/28 27/27/27
f 29/29/29 27/27/27 30/30/30
f 31/31/31 29/29/29 30/30/30
f 31/31/31 30/30/30 32/32/32
f 31/31/31 32/32/32 33/33/33
f 33/33/33 34/34/34 31/31/31
f 34/34/34 33/33/33 35/35/35
f 35/35/35 36/36/36 34/34/34
f 36/36/36 35/35/35 37/37/37
f 37/37/37 38/38/38 36/36/36
f 38/38/38 37/37/37 39/39/39
f 39/39/39 40/40/40 38/38/38
f 41/41/41 40/40/40 39/39/39
f 41/41/41 39/39/39 42/42/42
f 43/43/43 41/41/41 42/42/42
f 43/43/43 42/42/42 44/44/44
